<svg xmlns="http://www.w3.org/2000/svg" width="1600" height="520" viewBox="0 0 1600 520">
<rect width="1600" height="520" fill="#FFFDF7"/>
<g transform="translate(105 98) scale(1.04)">
<path d="M130 25 C165 -20 250 5 250 82 C250 160 164 218 130 250 C96 218 10 160 10 82 C10 5 95 -20 130 25 Z" fill="none" stroke="#C9A24A" stroke-width="22" stroke-linejoin="round"/>
<path d="M130 62 C150 32 205 48 205 91 C205 133 156 167 130 190 C104 167 55 133 55 91 C55 48 110 32 130 62 Z" fill="none" stroke="#C9A24A" stroke-width="16" stroke-linejoin="round"/>
<path d="M82 222 L178 222" stroke="#C9A24A" stroke-width="14" stroke-linecap="round"/>
</g>
<g transform="translate(410 95)">
<text x="0" y="145" font-family="Arial, Helvetica, sans-serif" font-size="148" font-weight="700" letter-spacing="4" fill="#071D49">TA</text>
<text x="217" y="145" font-family="Arial, Helvetica, sans-serif" font-size="148" font-weight="700" letter-spacing="4" fill="#C9A24A">MAIA</text>
<path d="M86 112 C105 128 134 128 153 112" fill="none" stroke="#C9A24A" stroke-width="9" stroke-linecap="round"/>
<path d="M404 112 C423 128 452 128 471 112" fill="none" stroke="#071D49" stroke-width="9" stroke-linecap="round"/>
<path d="M701 112 C720 128 749 128 768 112" fill="none" stroke="#071D49" stroke-width="9" stroke-linecap="round"/>
<text x="6" y="245" font-family="Arial, Helvetica, sans-serif" font-size="48" font-weight="400" letter-spacing="9" fill="#071D49">DOSKONAŁA REJESTRACJA</text>
</g>
</svg>